
<svg xmlns="http://www.w3.org/2000/svg" version="1.1" xmlns:xlink="http://www.w3.org/1999/xlink" preserveAspectRatio="none" x="0px" y="0px" width="1024px" height="1024px" viewBox="0 0 1024 1024">
<defs>
<g id="Layer0_0_MEMBER_0_FILL">
<path fill="#F26284" stroke="none" d="
M 341.2 221.05
Q 338.8 221.1 336.2 222.25 333.75 223.35 331.85 225.05 330.25 226.55 330.6 228.65 331 230.65 332.8 231.9 334.6 233.15 337.1 233.6 340.05 234.1 341.55 232.85 342.25 232.3 342.5 231.25 342.55 231 342.75 229.35 343.05 227.25 343.15 226.2 343.4 224.35 343.4 223.05 343.5 222.15 342.5 221.95 342.1 221 341.2 221.05 Z"/>
</g>

<g id="Layer0_0_MEMBER_1_FILL">
<path fill="#F26284" stroke="none" d="
M 65.25 222.6
L 65.25 222.7
Q 65.1 223.15 65.15 223.55 64.9 225.3 64.7 228.8 64.65 229.6 64.4 231.55 64.3 233.35 64.75 234.3 65.55 235.85 68.25 235.45 70.25 235.15 72.05 234.1 73.95 233 74.7 231.1 75.5 229.2 74.7 227.15 73.9 225 71.6 223.6 70.1 222.7 67.15 221.75
L 66.6 221.7
Q 65.45 221.5 65.25 222.6 Z"/>
</g>

<g id="Layer0_0_MEMBER_2_FILL">
<path fill="#06484B" stroke="none" d="
M 263.25 178.2
Q 260.1 184.65 260.2 192 260.35 199.3 263.6 205.7 268.55 215.4 280.85 221.15 281.8 219.55 282.75 218.9 276.85 216.2 272.6 212.55 266.5 207.2 264.1 199.4 261.7 191.55 263.9 183.8 266 176.35 272.1 170.95 277.9 165.85 285.7 164.1 286.8 163.9 286.45 162.8 286.15 161.7 285.1 161.9 278.15 163 272.25 167.45 266.4 171.85 263.25 178.2 Z"/>
</g>

<g id="Layer0_0_MEMBER_3_FILL">
<path fill="#0A5D7B" stroke="none" d="
M 178.8 155.35
Q 176.65 154.5 174.1 154.9 163.3 156.45 153.05 160.9 142.95 165.25 134.2 172 125.6 178.6 118.65 187.55 109.45 199.5 109.95 210.1 110.15 215.45 112.8 220 113.2 225.8 116.55 230.55 119.9 235.35 125.25 237.8 129.95 239.9 136.8 241.45 140.8 242.3 148.75 243.7 162.1 246.25 175.7 248.05 204.85 251.85 227.95 249.45 241.85 248 251.45 245.35 264.2 241.8 272.95 235.35 282.45 228.35 287.55 218.5 293.1 207.8 291.65 196.75 290 184.15 280.9 176.1 273.3 169.3 259.85 164.35 239.85 156.9 210.5 156.55 195.05 156.4 182.2 158.3 181.1 156.2 178.8 155.35 Z"/>
</g>

<g id="Layer0_0_MEMBER_4_FILL">
<path fill="#DE486C" stroke="none" d="
M 187.6 154.1
Q 176.15 158.6 170.4 172.35 164.75 185.9 165.2 201.7 165.4 208.45 166.3 213.4 166.4 216.65 166.65 219.1 168.45 236.2 178.2 246.25 183.45 251.65 190.35 254.1 197.35 256.6 204.7 255.6 214.15 255.7 222.2 249.2 239.85 235.15 237.25 198.95 236.25 184.5 230.8 173.55 224.3 160.6 212.6 155.35 206.55 152.65 200.2 152.25 193.45 151.8 187.6 154.1
M 187.2 174.05
Q 192.1 167.45 199.65 167.35 211.95 167.2 218.95 180 224.5 190.15 224.9 203.7 225.25 217.05 220.65 227.25 214.85 240.1 203.05 241.2 190.9 242.3 184.85 229.4 180.3 219.65 180.4 206.2 180.4 203.7 181.05 196.55 181.6 189.8 181.95 187.7 183.2 179.45 187.2 174.05 Z"/>
</g>

<g id="Layer0_0_MEMBER_5_FILL">
<path fill="#F27C9D" stroke="none" d="
M 183.4 151.4
Q 171.95 155.9 166.2 169.65 160.5 183.3 160.95 199 161.25 206 162.05 210.7 162.15 214.05 162.45 216.4 164.25 233.5 174 243.55 179.2 248.95 186.1 251.4 193.1 253.9 200.45 252.9 209.75 252.95 218 246.5 235.55 232.5 233.05 196.25 232 181.75 226.55 170.85 220.1 157.9 208.4 152.65 202.35 149.95 196 149.55 189.25 149.1 183.4 151.4
M 183 171.35
Q 187.85 164.75 195.45 164.65 207.75 164.5 214.75 177.3 220.3 187.45 220.65 201 221.05 214.3 216.45 224.55 210.6 237.4 198.8 238.5 186.65 239.6 180.65 226.7 176.1 217 176.15 203.5 176.2 201.05 176.8 193.85 177.4 187.2 177.7 185 178.95 176.8 183 171.35 Z"/>
</g>

<g id="Layer0_0_MEMBER_6_FILL">
<path fill="#DE486C" stroke="none" d="
M 104.1 157.15
Q 101.4 159.4 101.35 163.3 100.9 187.95 103.55 204.7 104.6 211.05 109.85 213.8 112.05 214.95 115.15 215.25 116.85 215.45 120.7 215.45 127.7 215.45 134.65 215
L 133.7 236.2
Q 133.6 238.3 133.3 242.45 133.15 246 133.6 248.6 133.95 250.85 136.2 252.45 138.3 253.95 140.6 253.95 143.05 253.95 145 252.45 146.9 250.95 147.6 248.6 148.5 245.85 148.75 241.5 148.85 236.55 148.95 234.25 149.35 227.35 149.4 220.5
L 149.5 212.2
Q 151.65 211.45 155.85 209.55 158.6 208.4 158.9 205.45 159.2 202.8 157.4 200.45 156.85 199.55 156.3 199.05 153.6 196.75 149.6 196.5 149.35 176.5 146.6 158.8 146.15 155.95 143.25 154.2 140.45 152.5 137.6 152.95 134.65 153.4 132.55 155.6 130.35 157.95 130.5 160.95 131.75 186.75 131.9 197.45
L 119.9 197.6 119.65 195.6 119.65 194.85 119 186.05
Q 118.3 173.95 118.35 163.3 118.4 159.4 115.75 157.15 113.4 155.1 109.95 155.1 106.5 155.1 104.1 157.15 Z"/>
</g>

<g id="Layer0_0_MEMBER_7_FILL">
<path fill="#DE486C" stroke="none" d="
M 280.4 152.75
Q 277.4 153.2 275.35 155.4 273.15 157.75 273.3 160.75 274.5 185.05 274.65 197.25
L 262.65 197.4 262.4 195.4 262.4 194.65 261.75 185.85
Q 261.05 173.7 261.1 163.1 261.15 159.2 258.5 156.95 256.15 154.9 252.75 154.9 249.3 154.9 246.9 156.95 244.2 159.2 244.15 163.1 243.6 187.6 246.35 204.5 247.3 210.8 252.6 213.6 254.8 214.75 257.9 215.05 259.65 215.25 263.45 215.25 270.45 215.25 277.4 214.8
L 277 224.9
Q 276.7 232.3 276.45 236 276.35 238.1 276.05 242.25 275.9 245.85 276.35 248.4 276.7 250.65 278.95 252.25 281.05 253.75 283.35 253.75 285.8 253.75 287.75 252.2 289.65 250.75 290.4 248.4 291.3 245.65 291.5 241.3 291.6 236.35 291.7 234.05 292.05 227.9 292.2 220.3
L 292.25 212
Q 294.4 211.25 298.6 209.35 301.35 208.2 301.65 205.25 301.95 202.55 300.15 200.25 299.7 199.4 299.05 198.85 296.45 196.55 292.35 196.3 292.1 175.75 289.35 158.6 288.9 155.75 286 154 283.25 152.3 280.4 152.75 Z"/>
</g>

<g id="Layer0_0_MEMBER_8_FILL">
<path fill="#F27C9D" stroke="none" d="
M 113.55 161
Q 113.6 157.1 110.95 154.85 108.6 152.8 105.15 152.8 101.7 152.8 99.3 154.85 96.6 157.1 96.55 161 96.1 186 98.75 202.4 99.8 208.75 105 211.5 107.2 212.65 110.3 212.95 112.05 213.15 115.9 213.15 122.85 213.15 129.8 212.7
L 128.9 233.9
Q 128.8 236 128.45 240.15 128.3 243.7 128.75 246.3 129.1 248.55 131.35 250.15 133.45 251.65 135.75 251.65 138.2 251.65 140.15 250.1 142.05 248.65 142.8 246.3 143.7 243.55 143.9 239.2 144.05 234.25 144.15 231.95 144.55 222.75 144.6 218.2
L 144.65 209.9
Q 146.8 209.15 151 207.25 153.75 206.1 154.05 203.15 154.35 200.5 152.55 198.15 152.1 197.3 151.45 196.75 148.85 194.45 144.8 194.2 144.45 173.5 141.75 156.5 141.3 153.65 138.4 151.9 135.65 150.2 132.8 150.65 129.8 151.1 127.75 153.3 125.55 155.65 125.7 158.65 126.95 184.3 127.05 195.15
L 115.1 195.3
Q 114.95 194.85 114.95 194.4
L 114.8 193.3 114.8 192.55 114.15 183.75
Q 113.4 171.4 113.55 161 Z"/>
</g>

<g id="Layer0_0_MEMBER_9_FILL">
<path fill="#F27C9D" stroke="none" d="
M 241.65 154.85
Q 238.95 157.1 238.85 161 238.4 185.7 241.1 202.4 242.05 208.7 247.35 211.5 249.55 212.65 252.65 212.95 254.35 213.15 258.2 213.15 265.2 213.15 272.15 212.7
L 271.75 222.8
Q 271.45 230.2 271.2 233.9 271.1 236 270.8 240.15 270.65 243.7 271.1 246.3 271.45 248.55 273.7 250.15 275.8 251.65 278.1 251.65 280.55 251.65 282.5 250.1 284.35 248.65 285.1 246.3 286 243.55 286.25 239.2 286.35 234.25 286.45 231.95 286.8 225.8 286.95 218.2
L 287 209.9
Q 289.15 209.15 293.35 207.25 296.1 206.1 296.4 203.15 296.7 200.5 294.9 198.15 294.35 197.25 293.8 196.75 291.2 194.45 287.1 194.2 286.85 173.75 284.1 156.5 283.65 153.65 280.75 151.9 277.95 150.2 275.1 150.65 272.15 151.1 270.05 153.3 267.85 155.65 268.05 158.65 269.25 183.1 269.4 195.15
L 257.4 195.3 257.15 193.3 257.15 192.55 256.5 183.75
Q 255.8 171.65 255.85 161 255.9 157.1 253.25 154.85 250.9 152.8 247.5 152.8 244.05 152.8 241.65 154.85 Z"/>
</g>

<g id="Layer0_0_MEMBER_10_MEMBER_0_FILL">
<path fill="#DFB7A7" stroke="none" d="
M 196.5 158.5
Q 178.9 158.5 173.25 179 169.9 191 171.15 206.55 172.1 217.9 175.55 228.15 178.8 238.05 184.9 242.55 188.7 245.4 194.2 246.45 199.8 247.45 204.35 246.1 213.95 243.2 219.1 234.4 223.35 227.1 223.85 217.2 225.05 194.2 224.85 190.85 224.3 181.15 219.4 172.35 211.6 158.5 196.5 158.5 Z"/>
</g>

<g id="Layer0_0_MEMBER_10_MEMBER_1_FILL">
<path fill="#F3DBCF" stroke="none" d="
M 195.7 158.25
Q 178.65 158.25 173.2 178.75 169.95 190.8 171.2 206.3 172.05 217.3 175.4 227.85 178.6 237.75 184.45 242.25 188.15 245.1 193.45 246.15 198.85 247.15 203.25 245.8 212.55 242.95 217.5 234.15 221.65 226.85 222.15 216.9 222.5 209.3 222.75 203.7 223.25 192.9 223.1 190.6 222.55 180.9 217.8 172.1 210.3 158.25 195.7 158.25 Z"/>
</g>

<g id="Layer0_0_MEMBER_10_MEMBER_2_FILL">
<path fill="#053E4B" stroke="none" d="
M 193.7 167
Q 196.55 165.85 199.95 163.8 202.3 162.4 202.9 162.6 203.65 162.85 206.05 166.15 209 170.35 212.65 173.4 216.45 176.55 220.25 185.25 223.35 192.25 225 198.95 225.1 199.45 226.05 198.2 226.95 196.95 227.05 196.3 227.65 188.05 224.25 178.25 221 168.85 215.75 162.5 211.85 157.75 205.4 155.8 199.25 153.95 192.8 155.2 186.95 156.4 182.35 159.3 177.4 162.4 174.45 167.15 170.45 173.5 168.5 182 166.6 190.25 167.3 197.6 167.45 199 168.9 200.5 170.4 202 170.6 203.4 171.1 206.35 171.15 205.5 172.5 184.3 180.95 174.65 183.35 171.95 186.85 170.05 188.85 168.95 193.7 167 Z"/>
</g>

<g id="Layer0_0_MEMBER_10_MEMBER_3_FILL">
<path fill="#053E4B" stroke="none" d="
M 180.35 193.6
Q 180 194.45 180.95 194.8 181.85 195.15 182.3 194.4
L 183.4 192.7
Q 184.25 193.8 185.1 194.45 186.05 195.25 186.85 194.45 187.65 193.65 186.85 192.7
L 184.85 190.45 186.05 188.55
Q 186.6 187.65 185.7 186.9 184.8 186.2 184.1 187
L 183.15 188.3
Q 183.05 188.15 182.4 187.5 181.85 186.95 181.65 186.8 181.05 186.35 180.4 186.85 179.8 187.4 179.95 188.05 180.05 188.5 181.75 190.6 181 191.95 180.35 193.6 Z"/>
</g>

<g id="Layer0_0_MEMBER_10_MEMBER_4_FILL">
<path fill="#053E4B" stroke="none" d="
M 211.85 186.1
L 210.05 188.25
Q 209.15 187.25 208.6 186.85 207.9 186.25 207.15 186.8 206.35 187.35 206.85 188.2 207.55 189.3 208.6 190.45 207.6 192.15 207 193.8 206.65 194.85 207.7 195.25 208.75 195.7 209.3 194.8
L 210.45 192.7
Q 211.2 193.65 211.8 194.1 212.6 194.75 213.5 194.15 214.4 193.55 213.8 192.55 213.25 191.6 211.9 190.25
L 213.6 187.5
Q 214.1 186.7 213.3 186.05 212.55 185.45 211.85 186.1 Z"/>
</g>

<g id="Layer0_0_MEMBER_10_MEMBER_5_FILL">
<path fill="#CA2755" stroke="none" d="
M 203.8 225.8
Q 204.1 224.65 203.15 223.55 202.65 224.55 201.95 225.1 202.4 226 201.05 226.2 200.85 226.2 197.9 226.2 196.35 226.3 195.7 226.3 194.6 226.3 194.2 226.05 193.45 226.55 192.7 225.85 192.85 226.65 193.55 227.5 193.95 227.95 195.35 227.85 196.15 227.85 198.05 227.7 198.65 227.7 200.65 227.85 202 227.95 202.3 227.7 203.5 226.85 203.8 225.8 Z"/>
</g>

<g id="Layer0_0_MEMBER_10_MEMBER_6_FILL">
<path fill="#FFFFFF" stroke="none" d="
M 202.35 224.55
Q 202.4 223.7 201.75 223.2 200 221.95 197.85 221.9 195.7 221.85 193.9 223 193.6 223.15 193.4 223.6 192.65 223.95 192.65 224.9 192.65 225.85 193.55 226 197 226.6 201.45 225.65 202.3 225.45 202.35 224.55 Z"/>
</g>

<g id="Layer0_0_MEMBER_10_MEMBER_7_FILL">
<path fill="#DE486C" stroke="none" d="
M 202.4 222.45
Q 201 221.2 198.65 220.95 196.3 220.7 194.5 221.55 192.75 222.4 192.35 223.9 192 225.4 193.2 226.75 193.6 227.2 194.95 227.1 195.75 227.1 197.65 226.95 198.3 226.95 200.3 227.1 201.6 227.2 201.95 226.95 203.25 226.05 203.45 224.85 203.65 223.6 202.4 222.45
M 196.15 222.65
Q 197.8 222.35 199.4 222.65 200.1 222.8 200.75 223.35 201.35 223.8 201.55 224.25 202.05 225.25 200.7 225.4 200.4 225.45 197.5 225.45 194.5 225.5 194.45 225.5 193.2 225.35 193.8 224.1 194.3 223.05 196.15 222.65 Z"/>
</g>

<g id="Layer0_0_MEMBER_10_MEMBER_8_MEMBER_0_FILL">
<path fill="#EB527E" stroke="none" d="
M 205.6 210.25
Q 204.95 208.4 204.75 207.7 204.7 207.35 204.35 208.15 204.05 208.9 204 209.35 204 210.05 204.25 211.4 204.25 212.15 203.8 212.8
L 202.95 212.9
Q 202.8 212.9 202.8 213.05 202.75 213.2 202.85 213.3 203.4 213.9 204.35 213.65 205.25 213.4 205.65 212.7 206.05 211.9 205.6 210.25 Z"/>
</g>

<g id="Layer0_0_MEMBER_10_MEMBER_8_MEMBER_1_FILL">
<path fill="#EB527E" stroke="none" d="
M 191.1 207.95
Q 190.8 207.55 190.7 207.75 189.65 210.5 189.9 211.8 190.15 213.3 192.25 213.4 192.6 213.4 192.7 213 192.85 212.6 192.5 212.45 191.3 211.75 191.2 211.35 191.15 211 191.45 210.65 191.85 210.3 191.95 210.1 192.05 209.85 191.9 209.65 191.7 209.4 191.45 209.45
L 191 209.7 191.35 208.65
Q 191.4 208.4 191.1 207.95 Z"/>
</g>

<g id="Layer0_0_MEMBER_10_MEMBER_8_MEMBER_2_FILL">
<path fill="#03373A" stroke="none" d="
M 204.65 213.05
Q 205.1 212.5 204.85 211.85 204.3 210.5 201.9 211 200.45 211.4 198 213.5
L 197.85 213.8
Q 197.75 213.9 197.85 214.05 197.9 214.2 198.05 214.2 198.3 214.3 198.6 214.15 198.8 214.05 200.75 213.75 201.65 213.65 203.5 213.6 204.2 213.5 204.65 213.05 Z"/>
</g>

<g id="Layer0_0_MEMBER_10_MEMBER_8_MEMBER_3_FILL">
<path fill="#03373A" stroke="none" d="
M 190.7 212.5
Q 191.05 213.05 191.75 213.3 192.5 213.55 194.15 213.7 196.5 214.3 196.7 214.35 197 214.45 197.2 214.35 197.4 214.2 197.2 213.95 196.3 212.75 193.5 211.25 192.45 210.75 192 210.65 191.05 210.45 190.65 211.2 190.3 211.85 190.7 212.5 Z"/>
</g>

<g id="Layer0_0_MEMBER_10_MEMBER_8_MEMBER_4_FILL">
<path fill="#EB527E" stroke="none" d="
M 197.85 192.85
Q 197.2 192.8 196.9 193.2 194.6 196.35 192.85 200.9 191.75 203.8 190.25 209.35 189.95 210.35 190.35 210.75 190.55 211 191.1 211.1 191.95 211.45 194.55 213.35 196.75 215 197.75 215 198.7 215 200.9 213.2 203.15 211.4 204.5 211.4 205 211.4 205.25 211.05 205.5 210.65 205.4 210.2 203.35 201.25 198.75 193.35 198.5 192.85 197.85 192.85 Z"/>
</g>

<g id="Layer0_0_MEMBER_10_MEMBER_9_FILL">
<path fill="#CA2755" stroke="none" d="
M 182.85 205.45
Q 184 204.95 184 203.85 183.95 202.8 182.8 202.3 181.3 201.65 179.45 202.15 178.05 202.3 177.15 202.85 176.1 203.45 176.25 204.2 176.15 204.5 176.2 204.65 176.25 205.5 177.55 205.7 178.6 206.25 180.3 206.1 181.7 205.95 182.85 205.45 Z"/>
</g>

<g id="Layer0_0_MEMBER_10_MEMBER_10_FILL">
<path fill="#CA2755" stroke="none" d="
M 217.85 202.8
Q 217.5 202.7 215.65 202.4 212.65 201.95 212.5 203.5 212.35 204.5 213.6 205.15 214.5 205.6 215.7 205.7
L 215.95 205.7 216.2 205.75
Q 217.3 205.85 218.2 205.55 219.45 205.15 219.4 204.15 219.35 203.25 217.85 202.8 Z"/>
</g>

<g id="Layer0_0_MEMBER_10_MEMBER_11_FILL">
<path fill="#E35974" stroke="none" d="
M 182.5 204.85
Q 183.65 204.3 183.65 203.25 183.6 202.2 182.45 201.65 181.05 201.05 179.1 201.5 177.7 201.65 176.8 202.2 175.75 202.8 175.9 203.6 175.8 203.8 175.85 204 175.9 204.8 177.2 205.1 178.25 205.6 179.95 205.5 181.4 205.35 182.5 204.85 Z"/>
</g>

<g id="Layer0_0_MEMBER_10_MEMBER_12_FILL">
<path fill="#E35974" stroke="none" d="
M 217.5 202.15
Q 217.05 202 215.3 201.75 212.3 201.45 212.15 202.85 212 203.9 213.25 204.5 214.15 204.95 215.35 205.05
L 215.6 205.1 215.85 205.1
Q 216.9 205.25 217.85 204.95 219.1 204.55 219.05 203.5 219 202.6 217.5 202.15 Z"/>
</g>

<g id="Layer0_0_MEMBER_10_MEMBER_13_FILL">
<path fill="#B8C7C9" stroke="none" d="
M 237.3 220.1
Q 234.95 218.35 231.6 217.8
L 230.9 217.7
Q 227.2 216.85 223.15 217.4 219.1 217.9 215.75 219.6 214.85 220.05 214.05 220.65 212.15 221.75 210.85 223.75 209.25 226.2 210.15 228.3 210.65 229.6 212.5 230.45 213.3 230.85 215.75 231.55 220.7 232.9 228.2 231.8 230.95 231.5 234.5 230.7 236.05 230.4 236.65 230.2 237.75 229.8 238.5 229.1 240.25 227.6 239.8 225.25 240.15 222.2 237.3 220.1 Z"/>
</g>

<g id="Layer0_0_MEMBER_10_MEMBER_14_FILL">
<path fill="#FFFFFF" stroke="none" d="
M 235.55 218.9
Q 233.2 217.15 229.85 216.6
L 229.1 216.5
Q 225.4 215.7 221.4 216.2 217.35 216.7 214 218.4 213.1 218.8 212.25 219.45 210.35 220.55 209.1 222.55 207.5 225 208.35 227.1 208.9 228.4 210.7 229.25 211.55 229.65 213.95 230.35 218.95 231.7 226.45 230.6 229.1 230.3 232.75 229.5 234.3 229.15 234.85 229 236.05 228.6 236.75 227.9 238.45 226.35 238.05 224.05 238.4 221 235.55 218.9 Z"/>
</g>

<g id="Layer0_0_MEMBER_10_MEMBER_15_MEMBER_0_FILL">
<path fill="#053E4B" stroke="none" d="
M 221.8 222
Q 221.45 220.75 220.45 220.3 219.85 220.05 219.35 220.2 219.2 220.05 219 220.2 218.05 220.9 217.65 222.15 217.3 223.35 217.65 224.55 218 225.75 218.85 226.5 219.9 227.45 220.9 226.75 221.8 226.1 222 224.55 222.2 223.15 221.8 222
M 219.1 221.45
Q 219.85 220.9 220.4 221.55 220.85 222.1 220.95 222.95 221.1 223.8 220.95 224.7 220.7 226 220 226 219.35 226 218.9 225.05 218.5 224.25 218.45 223.55 218.4 222.55 218.95 221.5
L 219.1 221.45 Z"/>
</g>

<g id="Layer0_0_MEMBER_10_MEMBER_15_MEMBER_1_FILL">
<path fill="#053E4B" stroke="none" d="
M 226.55 222.05
Q 226.35 220.9 225.55 220.25 224.65 219.5 223.7 220.1
L 223.6 220.15
Q 223.05 220.45 222.85 221.5 222.55 223.45 222.6 224.45 222.6 225.75 223.45 226.45 224.35 227.25 225.45 226.55 227.2 225.4 226.55 222.05
M 224.05 221.05
Q 225.35 220.55 225.65 222.6 225.95 224.5 225.2 225.35 224.85 225.8 224.4 225.75 223.95 225.75 223.7 225.25 223.5 224.8 223.6 223.75 223.6 221.55 223.95 221.05
L 224.05 221.05 Z"/>
</g>

<g id="Layer0_0_MEMBER_10_MEMBER_15_MEMBER_2_FILL">
<path fill="#053E4B" stroke="none" d="
M 231.15 221.15
Q 230.9 220.25 230.1 219.95 229.35 219.7 228.7 220.1 228.05 220.45 227.95 221.25 227.9 221.65 227.95 222.35 228 222.75 228.1 223.45
L 228.1 223.8 228.35 225.85
Q 228.45 226.2 228.8 226.1 229.15 226.05 229.15 225.7 229.2 225.25 229.1 224.35 230.6 224.2 231.1 222.75 231.4 221.95 231.15 221.15
M 229.95 221.05
Q 230.4 221.4 230.3 222.05 230.15 223.05 229 223.3 228.9 222.6 228.9 222.25 228.85 221.6 228.95 221.25 229.05 220.9 229.4 220.85 229.7 220.8 229.95 221.05 Z"/>
</g>

<g id="Layer0_0_MEMBER_10_MEMBER_15_MEMBER_3_FILL">
<path fill="#053E4B" stroke="none" d="
M 232.55 221.95
Q 232.55 221.55 232.85 221.3 233.2 221.1 233.6 221.15 233.9 221.2 234 220.9 234.15 220.65 233.85 220.5 232.75 219.95 232.05 220.9 231.4 221.8 231.85 222.8 232.05 223.2 232.5 223.55 232.55 223.6 233.1 223.9 233.45 224.1 233.6 224.3 233.85 224.6 233.75 224.95 233.6 225.35 233.2 225.45 232.9 225.5 232.45 225.4 231.8 225.25 231.7 225.25 231.35 225.25 231.3 225.55 231.2 225.85 231.45 226.05 232.5 226.7 233.65 226.25 234.9 225.8 234.75 224.55 234.65 223.7 233.45 223.05 232.55 222.5 232.55 221.95 Z"/>
</g>

<g id="Layer0_0_MEMBER_10_MEMBER_15_MEMBER_4_FILL">
<path fill="#053E4B" stroke="none" d="
M 213.55 226.3
Q 213.65 226 213.4 225.75 213.1 225.45 212.7 225.65 212.5 225.75 212.4 225.95 212.35 226.15 212.4 226.3 212.5 226.55 212.65 226.6 212.8 226.75 213 226.75 213.4 226.65 213.55 226.3 Z"/>
</g>

<g id="Layer0_0_MEMBER_10_MEMBER_15_MEMBER_5_FILL">
<path fill="#053E4B" stroke="none" d="
M 215.1 226.8
Q 215.45 226.45 215.3 226.1 215.2 225.6 214.65 225.7 214.15 225.7 214.15 226.25 214.15 226.4 214.35 226.7
L 214.45 226.8
Q 214.75 226.95 214.8 226.95 215.05 226.95 215.1 226.8 Z"/>
</g>

<g id="Layer0_0_MEMBER_10_MEMBER_15_MEMBER_6_FILL">
<path fill="#053E4B" stroke="none" d="
M 217.05 226.25
Q 217.2 226 217.05 225.75 216.9 225.55 216.65 225.55
L 216.45 225.5 216.3 225.55
Q 215.9 225.55 215.8 225.95
L 215.85 226.35
Q 216.05 226.55 216.2 226.6 216.8 226.8 217.05 226.25 Z"/>
</g>

<g id="Layer0_0_MEMBER_11_MEMBER_0_FILL">
<path fill="#9FB4B5" stroke="none" d="
M 156.3 168.95
Q 156.3 168.15 155.7 167.9 155.25 167.75 155.2 167.75 154.4 167.65 154.05 168.05 153.65 168.45 153.65 168.9 153.65 169.4 154.05 169.8 154.45 170.2 155.2 170.1
L 155.7 169.95
Q 156.3 169.7 156.3 168.95 Z"/>
</g>

<g id="Layer0_0_MEMBER_11_MEMBER_1_FILL">
<path fill="#9FB4B5" stroke="none" d="
M 154.45 229.05
Q 154.45 227.85 153.3 227.85 152.15 227.85 152.15 229.05 152.15 230.25 153.3 230.25 154.45 230.25 154.45 229.05 Z"/>
</g>

<g id="Layer0_0_MEMBER_11_MEMBER_2_FILL">
<path fill="#9FB4B5" stroke="none" d="
M 264.75 222.35
L 265 222.35
Q 265.45 222.4 265.8 222 266.15 221.65 266.15 221.2 266.1 220.75 265.8 220.4 265.45 220 265 220
L 264.75 220.05
Q 264.3 220.05 263.95 220.4 263.55 220.75 263.6 221.2 263.7 222.25 264.75 222.35 Z"/>
</g>

<g id="Layer0_0_MEMBER_11_MEMBER_3_FILL">
<path fill="#9FB4B5" stroke="none" d="
M 247.45 233.65
Q 247.75 232.85 247.25 232.45 246.7 231.9 246.05 232.25 245.4 232.35 245.15 232.95 244.75 233.8 245.4 234.3 245.95 234.85 246.55 234.6 247.35 234.4 247.45 233.65 Z"/>
</g>

<g id="Layer0_0_MEMBER_11_MEMBER_4_FILL">
<path fill="#9FB4B5" stroke="none" d="
M 265.8 176.45
Q 265.45 176.05 265 176.1
L 264.45 176.2
Q 263.65 176.4 263.65 177.25 263.65 178.05 264.45 178.3
L 265 178.4
Q 265.4 178.45 265.8 178.05 266.15 177.65 266.1 177.25 266.1 176.8 265.8 176.45 Z"/>
</g>

<g id="Layer0_0_MEMBER_11_MEMBER_5_FILL">
<path fill="#9FB4B5" stroke="none" d="
M 231.85 162.95
Q 231.85 161.8 230.75 161.8 229.65 161.8 229.65 162.95 229.65 164.05 230.75 164.05 231.85 164.05 231.85 162.95 Z"/>
</g>

<g id="Layer0_0_MEMBER_11_MEMBER_6_FILL">
<path fill="#9FB4B5" stroke="none" d="
M 244.85 215.45
Q 244.85 214.25 243.7 214.25 242.6 214.25 242.6 215.45 242.6 216.6 243.7 216.6 244.85 216.6 244.85 215.45 Z"/>
</g>

<g id="Layer0_0_MEMBER_11_MEMBER_7_FILL">
<path fill="#9FB4B5" stroke="none" d="
M 119.8 222.55
Q 119.8 222.1 119.6 221.75 119.25 221.2 118.6 221.2 117.9 221.2 117.55 221.75 117.3 222.15 117.4 222.55 117.5 223.2 117.75 223.4 118.1 223.85 118.6 223.75 119.65 223.75 119.8 222.55 Z"/>
</g>

<g id="Layer0_0_MEMBER_11_MEMBER_8_FILL">
<path fill="#9FB4B5" stroke="none" d="
M 124.2 188.8
Q 124.2 187.75 123.2 187.75 122.25 187.75 122.25 188.8 122.25 189.85 123.2 189.85 124.2 189.85 124.2 188.8 Z"/>
</g>

<g id="Layer0_0_MEMBER_11_MEMBER_9_FILL">
<path fill="#9FB4B5" stroke="none" d="
M 157.55 189.15
Q 157.9 188.75 157.85 188.35 157.85 187.9 157.55 187.6 157.2 187.2 156.75 187.25
L 156.5 187.25
Q 156.05 187.3 155.75 187.6 155.4 187.9 155.4 188.35 155.5 189.35 156.5 189.45
L 156.75 189.45
Q 157.15 189.5 157.55 189.15 Z"/>
</g>

<g id="Layer0_0_MEMBER_12_MEMBER_0_FILL">
<path fill="#FFFFFF" stroke="none" d="
M 156 168.5
Q 156 167.75 155.45 167.5 155.25 167.35 154.95 167.35 154.25 167.15 153.75 167.65 153.4 168.1 153.4 168.5 153.4 169 153.75 169.35 154.2 169.8 154.95 169.7
L 155.45 169.5
Q 156 169.3 156 168.5 Z"/>
</g>

<g id="Layer0_0_MEMBER_12_MEMBER_1_FILL">
<path fill="#FFFFFF" stroke="none" d="
M 154.15 228.65
Q 154.15 227.45 153 227.45 151.9 227.45 151.9 228.65 151.9 229.8 153 229.8 154.15 229.8 154.15 228.65 Z"/>
</g>

<g id="Layer0_0_MEMBER_12_MEMBER_2_FILL">
<path fill="#FFFFFF" stroke="none" d="
M 264.7 219.6
L 264.5 219.6
Q 264 219.65 263.7 219.95 263.3 220.3 263.35 220.75 263.35 221.25 263.7 221.55 264 221.9 264.5 221.9
L 264.7 221.95
Q 265.15 221.95 265.5 221.6 265.9 221.2 265.85 220.75 265.85 220.3 265.5 219.95 265.15 219.55 264.7 219.6 Z"/>
</g>

<g id="Layer0_0_MEMBER_12_MEMBER_3_FILL">
<path fill="#FFFFFF" stroke="none" d="
M 247.2 233.2
Q 247.45 232.5 247 232.05 246.45 231.55 245.75 231.8 245.1 231.95 244.85 232.55 244.6 233.4 245.1 233.9 245.65 234.35 246.3 234.2 247.05 234.05 247.2 233.2 Z"/>
</g>

<g id="Layer0_0_MEMBER_12_MEMBER_4_FILL">
<path fill="#FFFFFF" stroke="none" d="
M 265.5 176.05
Q 265.15 175.65 264.7 175.7
L 264.2 175.75
Q 263.3 176.05 263.4 176.85 263.4 177.65 264.2 177.9
L 264.7 177.95
Q 265.15 178 265.5 177.65 265.85 177.3 265.85 176.85 265.8 176.35 265.5 176.05 Z"/>
</g>

<g id="Layer0_0_MEMBER_12_MEMBER_5_FILL">
<path fill="#FFFFFF" stroke="none" d="
M 231.6 162.5
Q 231.6 161.35 230.5 161.35 229.4 161.35 229.4 162.5 229.4 163.6 230.5 163.6 231.6 163.6 231.6 162.5 Z"/>
</g>

<g id="Layer0_0_MEMBER_12_MEMBER_6_FILL">
<path fill="#FFFFFF" stroke="none" d="
M 244.6 215
Q 244.6 213.8 243.45 213.8 242.35 213.8 242.35 215 242.35 216.15 243.45 216.15 244.6 216.15 244.6 215 Z"/>
</g>

<g id="Layer0_0_MEMBER_12_MEMBER_7_FILL">
<path fill="#FFFFFF" stroke="none" d="
M 119.5 222.15
Q 119.55 221.7 119.35 221.35 119 220.75 118.35 220.75 117.65 220.75 117.3 221.35 117.1 221.7 117.15 222.15 117.15 222.65 117.5 223 117.85 223.35 118.3 223.35 119.4 223.3 119.5 222.15 Z"/>
</g>

<g id="Layer0_0_MEMBER_12_MEMBER_8_FILL">
<path fill="#FFFFFF" stroke="none" d="
M 123.95 188.4
Q 123.95 187.35 122.95 187.35 121.95 187.35 121.95 188.4 121.95 189.45 122.95 189.45 123.95 189.45 123.95 188.4 Z"/>
</g>

<g id="Layer0_0_MEMBER_12_MEMBER_9_FILL">
<path fill="#FFFFFF" stroke="none" d="
M 157.25 188.7
Q 157.6 188.35 157.6 187.95 157.55 187.5 157.25 187.15 156.95 186.8 156.5 186.8
L 156.25 186.85
Q 155.8 186.85 155.5 187.15 155.15 187.5 155.15 187.95 155.25 189 156.25 189
L 156.5 189.05
Q 156.9 189.05 157.25 188.7 Z"/>
</g>

<g id="Layer0_0_MEMBER_13_FILL">
<path fill="#033239" stroke="none" d="
M 180.7 178.8
Q 179.65 179.95 179.4 180.4 178.85 181.35 179.65 182.15 180.45 182.95 181.4 182.4 181.85 182.15 183 181.1 183.25 180.85 183.8 180.35 184.25 179.9 184.45 179.55 185 178.45 184.15 177.6 183.35 176.75 182.25 177.35 181.85 177.55 180.7 178.8 Z"/>
</g>

<g id="Layer0_0_MEMBER_14_FILL">
<path fill="#033239" stroke="none" d="
M 211.05 178.85
Q 212.05 178.8 212.5 177.85 212.95 176.9 212.15 176.2 212 176.1 210.15 175.15 208.9 174.6 208.2 174.15 206.8 173.35 206 174.75 205.2 176.15 206.5 177 208.05 178.05 209.6 178.55
L 210.1 178.7
Q 210.55 178.85 211.05 178.85 Z"/>
</g>

<g id="Layer0_0_MEMBER_15_FILL">
<path fill="#CA2755" stroke="none" d="
M 171.75 213.05
Q 172.15 212.8 172.05 212.4 171.05 208.45 171.2 205.15 171.5 202.85 171.55 201.7 171.7 199.7 170.85 198.55 170 197.4 168.75 197.25 167.45 197.15 166.55 198.2 164.65 200.35 166.3 205.2 166.95 207.15 168.4 209.25 169.2 210.5 171.1 212.9 171.4 213.25 171.75 213.05 Z"/>
</g>

<g id="Layer0_0_MEMBER_16_FILL">
<path fill="#CA2755" stroke="none" d="
M 227.05 196.5
Q 226 196 225.05 196.8 224.1 197.5 224.1 212.35 224.1 212.75 224.5 213 224.9 213.25 225.15 212.9 227.6 209.8 229.2 205.15 230.9 200.3 228.95 198.2 227.8 196.9 227.05 196.5 Z"/>
</g>

<g id="Layer0_0_MEMBER_17_FILL">
<path fill="#053E4B" stroke="none" d="
M 55.4 214.8
Q 55.2 214.6 54.85 214.65 54.55 214.75 54.45 215.05
L 54.25 216.3
Q 53.05 214.15 52.45 213.1 52.35 212.9 52.1 213 51.9 213.05 51.95 213.3 52.65 215.55 54.2 218.3 54.4 218.65 54.8 218.55 55.2 218.45 55.2 218.05 55.2 217.3 55.35 216.55 57.25 219.1 58.25 220 58.65 220.35 59.05 220.05 59.5 219.75 59.2 219.3 58.55 218.3 57.4 217 56.05 215.55 55.4 214.8 Z"/>
</g>

<g id="Layer0_0_MEMBER_18_FILL">
<path fill="#053E4B" stroke="none" d="
M 353.25 221.5
Q 353.5 221.8 353.75 221.65
L 357.35 219.25 356.6 221.1
Q 356.5 221.4 356.8 221.6 357.05 221.75 357.3 221.65 357.75 221.45 360.3 220.35 362.15 219.6 363.3 219 363.6 218.8 363.45 218.45 363.3 218.1 362.95 218.2 361.25 218.8 357.95 220.3
L 358.8 218.1
Q 358.9 217.85 358.6 217.6 358.35 217.4 358.1 217.55 354.7 219.9 353.3 221.05 353.05 221.25 353.25 221.5 Z"/>
</g>

<g id="Layer0_0_MEMBER_19_FILL">
<path fill="#053E4B" stroke="none" d="
M 366.95 228.55
Q 367.05 228.1 366.65 228
L 363.7 227.55
Q 363.95 227.3 363.9 227.05 363.85 226.75 363.5 226.7 359.35 226.15 358.85 226.15 358.65 226.15 358.6 226.4 358.6 226.6 358.8 226.65 359.95 227 362.35 227.4
L 362.3 227.45
Q 362.05 227.6 362.05 227.95 362.1 228.25 362.4 228.3 365.05 228.8 366.5 228.95 366.9 229.05 366.95 228.55 Z"/>
</g>

<g id="Layer0_0_MEMBER_20_FILL">
<path fill="#CA2755" stroke="none" d="
M 198.5 193.4
Q 198.15 192.75 197.4 193.1 196.85 193.35 195.3 199.95 193.75 206.6 193.75 208.9 193.75 211.3 193.85 211.85 194.1 213.4 195.25 214.2 197.75 216 200.05 214.35 202.3 212.7 202.05 209.8 201.75 206.75 200.65 201.3 199.4 194.95 198.5 193.4 Z"/>
</g>

<g id="Layer0_0_MEMBER_21_FILL">
<path fill="#DE486C" stroke="none" d="
M 341.25 232.25
Q 342 231.25 342.2 229.3 342.25 229.1 342.1 228.9 341.95 228.7 341.75 228.7 334.05 227.5 330.1 227.65 329.85 227.65 329.75 228 329.7 228.3 330 228.35
L 330.2 228.4 330.25 228.65
Q 330.8 230.95 333.9 232.6 336.95 234.3 339.3 233.55 340.05 233.5 340.65 232.95 341.15 232.9 341.25 232.25 Z"/>
</g>

<g id="Layer0_0_MEMBER_22_FILL">
<path fill="#DE486C" stroke="none" d="
M 73.85 232.3
Q 75.8 230.35 75.15 229.15 74.85 228.55 73.9 228.45 72.8 228.45 72.35 228.45 70.25 228.3 69.15 228.25 67.2 228.15 65.9 228.2
L 65.85 228.15
Q 65.4 227.95 65.1 228.15
L 65 228.25 64.75 228.3
Q 64.55 228.3 64.4 228.55 64.3 228.75 64.45 228.9 63.95 229.85 63.85 231.95 63.75 233.05 64.2 233.6 64.3 234.25 64.85 234.6 65.95 235.3 69.65 234.4 72.3 233.8 73.85 232.3 Z"/>
</g>

<g id="Layer0_0_MEMBER_23_FILL">
<path fill="#053E4B" stroke="none" d="
M 104.65 221.2
Q 104.35 220.1 103.1 220.25 101.85 220.4 101.95 221.55 102.25 224 102.35 224.45 90.45 226.8 76.9 227.5 76.6 226.55 76.15 225.75 73.5 221.4 66.3 220.45
L 66.35 219.5
Q 66.35 218 64.9 218.05 63.5 218.05 63.3 219.5
L 62.7 224.35
Q 61.3 223.7 59.4 223.55 57.65 223.35 56.2 223.65 54.95 223.85 55.2 225.1 55.4 226.3 56.55 226.4 57.8 226.5 60.2 226.65
L 62.35 227.2 62.05 229.5
Q 60.25 229.05 55.15 228.6 53.95 228.5 53.8 229.85 53.6 231.25 54.8 231.4 55.9 231.55 58.2 231.9 60.25 232.15 61.65 232.15 61.55 233.7 61.95 234.75
L 61.7 236.55
Q 61.5 238 62.9 238.4 64.35 238.85 64.65 237.4
L 64.75 236.75
Q 65.55 236.8 67.05 236.6 68.15 236.45 70.5 236.2 72.5 235.9 73.75 235.3 76.7 233.9 77.15 230.5
L 84 230
Q 94.95 229.05 103.35 227.35 103.45 227.6 103.7 228.6 104.2 229.65 105.35 229.15 106.45 228.65 106.2 227.55 105.65 224.45 105.1 223.2
L 104.65 221.2
M 73.2 226.4
Q 74.9 228.5 74.15 230.8 73.5 232.65 70.65 233.1 69.05 233.45 68.05 233.6 66.25 233.95 65.5 233.8
L 65.3 233.7
Q 66 229.35 66.25 223.1 68.65 223.6 70.05 224.2 72 225 73.2 226.4 Z"/>
</g>

<g id="Layer0_0_MEMBER_24_MEMBER_0_FILL">
<path fill="#053E4B" stroke="none" d="
M 347.7 218.4
Q 346.95 218 346.25 218.45 345.1 218.55 344.15 219.35 343.5 219.95 343.1 220.7 339.5 219.4 334.85 220.9 329.85 222.5 328.65 226.05 322.15 225.55 318.9 225.2 312.5 224.5 307.05 223.5 307.3 222.15 307.2 220.8 307.15 220.05 306.55 219.65 306 219.25 305.35 219.4 304.4 219.4 304.1 220.15 302.7 223.45 302.5 226.9 302.45 227.6 302.95 228.05 303.35 228.85 304.4 228.75 305.45 228.7 305.65 227.75
L 305.8 226.95 306 226.6
Q 311.5 227.6 322.45 228.7
L 328.5 229.15
Q 329.25 232.65 332.85 234.3 334.8 235.2 337.3 235.25 339.1 235.25 341.85 234.8 342.45 236.45 344.05 237.15 347.15 238.55 349.2 235.45 350.6 233.35 351.25 229.75 352.8 220.95 347.7 218.4
M 338.25 232.45
Q 336.55 232.5 335.2 232.15 333.4 231.7 332.3 230.5 330.95 229.15 331.25 227.4 331.65 224.8 336.3 223.5 337.6 223.1 339.35 223 339.45 223 342.35 223
L 342.1 224.95
Q 342 225.85 341.6 228.25 341.3 230.55 341.35 232.05 339.4 232.4 338.25 232.45
M 344.75 228.05
Q 344.8 225.75 344.95 224.3 345.3 221.7 346.5 221.15 348.75 223 348.6 226.65 348.6 228.85 348.05 231.05 348.05 230.8 347.95 230.7 347.85 229.95 347.05 229.65 346.35 229.5 345.75 230 345.1 230.55 345.5 231.45 345.8 232.1 346.4 232.25 347.1 232.55 347.75 232
L 347.85 231.85
Q 347.3 233.55 346.6 234.05 344.6 235.45 344.45 232.25 344.4 231.4 344.75 228.05 Z"/>
</g>

<g id="Layer0_0_MEMBER_24_MEMBER_1_FILL">
<path fill="#053E4B" stroke="none" d="
M 346.9 223.65
Q 345.7 223.65 345.7 224.95 345.7 226.2 346.9 226.2 348.15 226.2 348.15 224.95 348.15 223.65 346.9 223.65 Z"/>
</g>
</defs>

<g transform="matrix( 3.0779266357421875, 0, 0, 3.0779266357421875, -132.65,-111.8) ">
<use xlink:href="#Layer0_0_MEMBER_0_FILL"/>
</g>

<g transform="matrix( 3.0779266357421875, 0, 0, 3.0779266357421875, -132.65,-111.8) ">
<use xlink:href="#Layer0_0_MEMBER_1_FILL"/>
</g>

<g transform="matrix( 3.0779266357421875, 0, 0, 3.0779266357421875, -132.65,-111.8) ">
<use xlink:href="#Layer0_0_MEMBER_2_FILL"/>
</g>

<g transform="matrix( 3.0779266357421875, 0, 0, 3.0779266357421875, -132.65,-111.8) ">
<use xlink:href="#Layer0_0_MEMBER_3_FILL"/>
</g>

<g transform="matrix( 3.0779266357421875, 0, 0, 3.0779266357421875, -132.65,-111.8) ">
<use xlink:href="#Layer0_0_MEMBER_4_FILL"/>
</g>

<g transform="matrix( 3.0779266357421875, 0, 0, 3.0779266357421875, -132.65,-111.8) ">
<use xlink:href="#Layer0_0_MEMBER_5_FILL"/>
</g>

<g transform="matrix( 3.0779266357421875, 0, 0, 3.0779266357421875, -132.65,-111.8) ">
<use xlink:href="#Layer0_0_MEMBER_6_FILL"/>
</g>

<g transform="matrix( 3.0779266357421875, 0, 0, 3.0779266357421875, -132.65,-111.8) ">
<use xlink:href="#Layer0_0_MEMBER_7_FILL"/>
</g>

<g transform="matrix( 3.0779266357421875, 0, 0, 3.0779266357421875, -132.65,-111.8) ">
<use xlink:href="#Layer0_0_MEMBER_8_FILL"/>
</g>

<g transform="matrix( 3.0779266357421875, 0, 0, 3.0779266357421875, -132.65,-111.8) ">
<use xlink:href="#Layer0_0_MEMBER_9_FILL"/>
</g>

<g transform="matrix( 3.0779266357421875, 0, 0, 3.0779266357421875, -132.65,-111.8) ">
<use xlink:href="#Layer0_0_MEMBER_10_MEMBER_0_FILL"/>
</g>

<g transform="matrix( 3.0779266357421875, 0, 0, 3.0779266357421875, -132.65,-111.8) ">
<use xlink:href="#Layer0_0_MEMBER_10_MEMBER_1_FILL"/>
</g>

<g transform="matrix( 3.0779266357421875, 0, 0, 3.0779266357421875, -132.65,-111.8) ">
<use xlink:href="#Layer0_0_MEMBER_10_MEMBER_2_FILL"/>
</g>

<g transform="matrix( 3.0779266357421875, 0, 0, 3.0779266357421875, -132.65,-111.8) ">
<use xlink:href="#Layer0_0_MEMBER_10_MEMBER_3_FILL"/>
</g>

<g transform="matrix( 3.0779266357421875, 0, 0, 3.0779266357421875, -132.65,-111.8) ">
<use xlink:href="#Layer0_0_MEMBER_10_MEMBER_4_FILL"/>
</g>

<g transform="matrix( 3.0779266357421875, 0, 0, 3.0779266357421875, -132.65,-111.8) ">
<use xlink:href="#Layer0_0_MEMBER_10_MEMBER_5_FILL"/>
</g>

<g transform="matrix( 3.0779266357421875, 0, 0, 3.0779266357421875, -132.65,-111.8) ">
<use xlink:href="#Layer0_0_MEMBER_10_MEMBER_6_FILL"/>
</g>

<g transform="matrix( 3.0779266357421875, 0, 0, 3.0779266357421875, -132.65,-111.8) ">
<use xlink:href="#Layer0_0_MEMBER_10_MEMBER_7_FILL"/>
</g>

<g transform="matrix( 3.0779266357421875, 0, 0, 3.0779266357421875, -132.65,-111.8) ">
<use xlink:href="#Layer0_0_MEMBER_10_MEMBER_8_MEMBER_0_FILL"/>
</g>

<g transform="matrix( 3.0779266357421875, 0, 0, 3.0779266357421875, -132.65,-111.8) ">
<use xlink:href="#Layer0_0_MEMBER_10_MEMBER_8_MEMBER_1_FILL"/>
</g>

<g transform="matrix( 3.0779266357421875, 0, 0, 3.0779266357421875, -132.65,-111.8) ">
<use xlink:href="#Layer0_0_MEMBER_10_MEMBER_8_MEMBER_2_FILL"/>
</g>

<g transform="matrix( 3.0779266357421875, 0, 0, 3.0779266357421875, -132.65,-111.8) ">
<use xlink:href="#Layer0_0_MEMBER_10_MEMBER_8_MEMBER_3_FILL"/>
</g>

<g transform="matrix( 3.0779266357421875, 0, 0, 3.0779266357421875, -132.65,-111.8) ">
<use xlink:href="#Layer0_0_MEMBER_10_MEMBER_8_MEMBER_4_FILL"/>
</g>

<g transform="matrix( 3.0779266357421875, 0, 0, 3.0779266357421875, -132.65,-111.8) ">
<use xlink:href="#Layer0_0_MEMBER_10_MEMBER_9_FILL"/>
</g>

<g transform="matrix( 3.0779266357421875, 0, 0, 3.0779266357421875, -132.65,-111.8) ">
<use xlink:href="#Layer0_0_MEMBER_10_MEMBER_10_FILL"/>
</g>

<g transform="matrix( 3.0779266357421875, 0, 0, 3.0779266357421875, -132.65,-111.8) ">
<use xlink:href="#Layer0_0_MEMBER_10_MEMBER_11_FILL"/>
</g>

<g transform="matrix( 3.0779266357421875, 0, 0, 3.0779266357421875, -132.65,-111.8) ">
<use xlink:href="#Layer0_0_MEMBER_10_MEMBER_12_FILL"/>
</g>

<g transform="matrix( 3.0779266357421875, 0, 0, 3.0779266357421875, -132.65,-111.8) ">
<use xlink:href="#Layer0_0_MEMBER_10_MEMBER_13_FILL"/>
</g>

<g transform="matrix( 3.0779266357421875, 0, 0, 3.0779266357421875, -132.65,-111.8) ">
<use xlink:href="#Layer0_0_MEMBER_10_MEMBER_14_FILL"/>
</g>

<g transform="matrix( 3.0779266357421875, 0, 0, 3.0779266357421875, -132.65,-111.8) ">
<use xlink:href="#Layer0_0_MEMBER_10_MEMBER_15_MEMBER_0_FILL"/>
</g>

<g transform="matrix( 3.0779266357421875, 0, 0, 3.0779266357421875, -132.65,-111.8) ">
<use xlink:href="#Layer0_0_MEMBER_10_MEMBER_15_MEMBER_1_FILL"/>
</g>

<g transform="matrix( 3.0779266357421875, 0, 0, 3.0779266357421875, -132.65,-111.8) ">
<use xlink:href="#Layer0_0_MEMBER_10_MEMBER_15_MEMBER_2_FILL"/>
</g>

<g transform="matrix( 3.0779266357421875, 0, 0, 3.0779266357421875, -132.65,-111.8) ">
<use xlink:href="#Layer0_0_MEMBER_10_MEMBER_15_MEMBER_3_FILL"/>
</g>

<g transform="matrix( 3.0779266357421875, 0, 0, 3.0779266357421875, -132.65,-111.8) ">
<use xlink:href="#Layer0_0_MEMBER_10_MEMBER_15_MEMBER_4_FILL"/>
</g>

<g transform="matrix( 3.0779266357421875, 0, 0, 3.0779266357421875, -132.65,-111.8) ">
<use xlink:href="#Layer0_0_MEMBER_10_MEMBER_15_MEMBER_5_FILL"/>
</g>

<g transform="matrix( 3.0779266357421875, 0, 0, 3.0779266357421875, -132.65,-111.8) ">
<use xlink:href="#Layer0_0_MEMBER_10_MEMBER_15_MEMBER_6_FILL"/>
</g>

<g transform="matrix( 3.0779266357421875, 0, 0, 3.0779266357421875, -132.65,-111.8) ">
<use xlink:href="#Layer0_0_MEMBER_11_MEMBER_0_FILL"/>
</g>

<g transform="matrix( 3.0779266357421875, 0, 0, 3.0779266357421875, -132.65,-111.8) ">
<use xlink:href="#Layer0_0_MEMBER_11_MEMBER_1_FILL"/>
</g>

<g transform="matrix( 3.0779266357421875, 0, 0, 3.0779266357421875, -132.65,-111.8) ">
<use xlink:href="#Layer0_0_MEMBER_11_MEMBER_2_FILL"/>
</g>

<g transform="matrix( 3.0779266357421875, 0, 0, 3.0779266357421875, -132.65,-111.8) ">
<use xlink:href="#Layer0_0_MEMBER_11_MEMBER_3_FILL"/>
</g>

<g transform="matrix( 3.0779266357421875, 0, 0, 3.0779266357421875, -132.65,-111.8) ">
<use xlink:href="#Layer0_0_MEMBER_11_MEMBER_4_FILL"/>
</g>

<g transform="matrix( 3.0779266357421875, 0, 0, 3.0779266357421875, -132.65,-111.8) ">
<use xlink:href="#Layer0_0_MEMBER_11_MEMBER_5_FILL"/>
</g>

<g transform="matrix( 3.0779266357421875, 0, 0, 3.0779266357421875, -132.65,-111.8) ">
<use xlink:href="#Layer0_0_MEMBER_11_MEMBER_6_FILL"/>
</g>

<g transform="matrix( 3.0779266357421875, 0, 0, 3.0779266357421875, -132.65,-111.8) ">
<use xlink:href="#Layer0_0_MEMBER_11_MEMBER_7_FILL"/>
</g>

<g transform="matrix( 3.0779266357421875, 0, 0, 3.0779266357421875, -132.65,-111.8) ">
<use xlink:href="#Layer0_0_MEMBER_11_MEMBER_8_FILL"/>
</g>

<g transform="matrix( 3.0779266357421875, 0, 0, 3.0779266357421875, -132.65,-111.8) ">
<use xlink:href="#Layer0_0_MEMBER_11_MEMBER_9_FILL"/>
</g>

<g transform="matrix( 3.0779266357421875, 0, 0, 3.0779266357421875, -132.65,-111.8) ">
<use xlink:href="#Layer0_0_MEMBER_12_MEMBER_0_FILL"/>
</g>

<g transform="matrix( 3.0779266357421875, 0, 0, 3.0779266357421875, -132.65,-111.8) ">
<use xlink:href="#Layer0_0_MEMBER_12_MEMBER_1_FILL"/>
</g>

<g transform="matrix( 3.0779266357421875, 0, 0, 3.0779266357421875, -132.65,-111.8) ">
<use xlink:href="#Layer0_0_MEMBER_12_MEMBER_2_FILL"/>
</g>

<g transform="matrix( 3.0779266357421875, 0, 0, 3.0779266357421875, -132.65,-111.8) ">
<use xlink:href="#Layer0_0_MEMBER_12_MEMBER_3_FILL"/>
</g>

<g transform="matrix( 3.0779266357421875, 0, 0, 3.0779266357421875, -132.65,-111.8) ">
<use xlink:href="#Layer0_0_MEMBER_12_MEMBER_4_FILL"/>
</g>

<g transform="matrix( 3.0779266357421875, 0, 0, 3.0779266357421875, -132.65,-111.8) ">
<use xlink:href="#Layer0_0_MEMBER_12_MEMBER_5_FILL"/>
</g>

<g transform="matrix( 3.0779266357421875, 0, 0, 3.0779266357421875, -132.65,-111.8) ">
<use xlink:href="#Layer0_0_MEMBER_12_MEMBER_6_FILL"/>
</g>

<g transform="matrix( 3.0779266357421875, 0, 0, 3.0779266357421875, -132.65,-111.8) ">
<use xlink:href="#Layer0_0_MEMBER_12_MEMBER_7_FILL"/>
</g>

<g transform="matrix( 3.0779266357421875, 0, 0, 3.0779266357421875, -132.65,-111.8) ">
<use xlink:href="#Layer0_0_MEMBER_12_MEMBER_8_FILL"/>
</g>

<g transform="matrix( 3.0779266357421875, 0, 0, 3.0779266357421875, -132.65,-111.8) ">
<use xlink:href="#Layer0_0_MEMBER_12_MEMBER_9_FILL"/>
</g>

<g transform="matrix( 3.0779266357421875, 0, 0, 3.0779266357421875, -132.65,-111.8) ">
<use xlink:href="#Layer0_0_MEMBER_13_FILL"/>
</g>

<g transform="matrix( 3.0779266357421875, 0, 0, 3.0779266357421875, -132.65,-111.8) ">
<use xlink:href="#Layer0_0_MEMBER_14_FILL"/>
</g>

<g transform="matrix( 3.0779266357421875, 0, 0, 3.0779266357421875, -132.65,-111.8) ">
<use xlink:href="#Layer0_0_MEMBER_15_FILL"/>
</g>

<g transform="matrix( 3.0779266357421875, 0, 0, 3.0779266357421875, -132.65,-111.8) ">
<use xlink:href="#Layer0_0_MEMBER_16_FILL"/>
</g>

<g transform="matrix( 3.0779266357421875, 0, 0, 3.0779266357421875, -132.65,-111.8) ">
<use xlink:href="#Layer0_0_MEMBER_17_FILL"/>
</g>

<g transform="matrix( 3.0779266357421875, 0, 0, 3.0779266357421875, -132.65,-111.8) ">
<use xlink:href="#Layer0_0_MEMBER_18_FILL"/>
</g>

<g transform="matrix( 3.0779266357421875, 0, 0, 3.0779266357421875, -132.65,-111.8) ">
<use xlink:href="#Layer0_0_MEMBER_19_FILL"/>
</g>

<g transform="matrix( 3.0779266357421875, 0, 0, 3.0779266357421875, -132.65,-111.8) ">
<use xlink:href="#Layer0_0_MEMBER_20_FILL"/>
</g>

<g transform="matrix( 3.0779266357421875, 0, 0, 3.0779266357421875, -132.65,-111.8) ">
<use xlink:href="#Layer0_0_MEMBER_21_FILL"/>
</g>

<g transform="matrix( 3.0779266357421875, 0, 0, 3.0779266357421875, -132.65,-111.8) ">
<use xlink:href="#Layer0_0_MEMBER_22_FILL"/>
</g>

<g transform="matrix( 3.0779266357421875, 0, 0, 3.0779266357421875, -132.65,-111.8) ">
<use xlink:href="#Layer0_0_MEMBER_23_FILL"/>
</g>

<g transform="matrix( 3.0779266357421875, 0, 0, 3.0779266357421875, -132.65,-111.8) ">
<use xlink:href="#Layer0_0_MEMBER_24_MEMBER_0_FILL"/>
</g>

<g transform="matrix( 3.0779266357421875, 0, 0, 3.0779266357421875, -132.65,-111.8) ">
<use xlink:href="#Layer0_0_MEMBER_24_MEMBER_1_FILL"/>
</g>
</svg>
