<?xml version="1.0" standalone="no"?><!DOCTYPE svg PUBLIC "-//W3C//DTD SVG 1.1//EN" "http://www.w3.org/Graphics/SVG/1.1/DTD/svg11.dtd"><svg t="1614238272138" class="icon" viewBox="0 0 4933 1024" version="1.1" xmlns="http://www.w3.org/2000/svg" p-id="6007" xmlns:xlink="http://www.w3.org/1999/xlink" width="963.4765625" height="200"><defs><style type="text/css"></style></defs><path d="M64.512 37.515636L547.653818 512l-483.141818 474.484364h483.141818l483.141818-474.484364L547.560727 37.515636z" fill="#E5E5E5" p-id="6008"></path><path d="M992.349091 37.422545L1475.490909 512l-483.141818 474.577455h483.141818l483.141818-474.577455L1475.490909 37.422545h-483.141818z m966.283636 0L2441.774545 512l-483.141818 474.577455h483.141818l483.141819-474.577455L2441.774545 37.422545h-483.141818zM2947.258182 37.422545L3430.4 512l-483.141818 474.577455h483.141818l483.141818-474.577455L3430.4 37.422545h-483.141818z m966.283636 0L4396.683636 512l-483.141818 474.577455h483.141818l483.141819-474.577455L4396.683636 37.422545h-483.141818z" fill="#E5E5E5" p-id="6009"></path></svg>